<svg xmlns="http://www.w3.org/2000/svg" version="1.1" xmlns:xlink="http://www.w3.org/1999/xlink" viewBox="0 0 200 200"><rect width="200" height="200" fill="url('#gradient')"></rect><defs><linearGradient id="gradient" gradientTransform="rotate(45 0.5 0.5)"><stop offset="0%" stop-color="#dee90b"></stop><stop offset="100%" stop-color="#d9e241"></stop></linearGradient></defs><g><g fill="#1b3855" transform="matrix(3.00832381263261,0,0,3.00832381263261,10.093549541266867,121.37851476941701)" stroke="#0e5278" stroke-width="0.2"><path d="M3.65-14.22L6.28-8.05L8.90-14.22L12.60-14.22L8.02-5.11L8.02 0L4.54 0L4.54-5.11L-0.03-14.22L3.65-14.22ZM21.07 0L20.24-2.66L15.55-2.66L14.73 0L11.06 0L16.28-14.22L19.50-14.22L24.76 0L21.07 0ZM17.89-10.23L16.37-5.30L19.42-5.30L17.89-10.23ZM26.90-14.22L29.53-8.05L32.15-14.22L35.85-14.22L31.27-5.11L31.27 0L27.79 0L27.79-5.11L23.22-14.22L26.90-14.22ZM48.64-7.47L48.64-6.82Q48.64-4.74 47.87-3.13Q47.10-1.53 45.68-0.67Q44.26 0.20 42.44 0.20Q40.63 0.20 39.22-0.64Q37.81-1.47 37.03-3.03Q36.24-4.58 36.20-6.59L36.20-6.59L36.20-7.39Q36.20-9.48 36.97-11.08Q37.73-12.68 39.17-13.54Q40.60-14.41 42.42-14.41L42.42-14.41Q44.23-14.41 45.64-13.55Q47.06-12.70 47.85-11.11Q48.63-9.52 48.64-7.47L48.64-7.47ZM45.16-6.76L45.16-7.41Q45.16-9.53 44.45-10.63Q43.74-11.73 42.42-11.73L42.42-11.73Q39.84-11.73 39.70-7.86L39.70-7.86L39.69-6.82Q39.69-4.73 40.38-3.60Q41.07-2.48 42.44-2.48L42.44-2.48Q43.74-2.48 44.44-3.58Q45.15-4.69 45.16-6.76L45.16-6.76ZM53.84-14.22L53.84-2.64L59.80-2.64L59.80 0L50.41 0L50.41-14.22L53.84-14.22Z"></path></g></g></svg>